<svg id="Ebene_1" data-name="Ebene 1" xmlns="http://www.w3.org/2000/svg" xmlns:xlink="http://www.w3.org/1999/xlink" viewBox="0 0 48 48"><defs><style>.cls-1{fill:none;}.cls-2{clip-path:url(#clip-path);}.cls-3{clip-path:url(#clip-path-2);}.cls-4{fill:#3cf596;}.cls-5{clip-path:url(#clip-path-3);}.cls-6{clip-path:url(#clip-path-5);}.cls-7{clip-path:url(#clip-path-7);}.cls-8{clip-path:url(#clip-path-9);}</style><clipPath id="clip-path"><path class="cls-1" d="M17.09,19A8.13,8.13,0,0,1,18,17.76V12H16v7Z"/></clipPath><clipPath id="clip-path-2"><rect class="cls-1" x="-1105" y="-259" width="1555" height="5483"/></clipPath><clipPath id="clip-path-3"><circle class="cls-1" cx="24" cy="23" r="6"/></clipPath><clipPath id="clip-path-5"><path class="cls-1" d="M32,14h2v2H32ZM20,16.11A7.87,7.87,0,0,1,30.89,19H36V15.66A3.67,3.67,0,0,0,32.33,12H20Z"/></clipPath><clipPath id="clip-path-7"><path class="cls-1" d="M38,32.33A5.67,5.67,0,0,1,32.33,38H15.67A5.67,5.67,0,0,1,10,32.33V15.66A5.67,5.67,0,0,1,15.67,10H32.33A5.67,5.67,0,0,1,38,15.66ZM24,0A24,24,0,1,0,48,24,24,24,0,0,0,24,0Z"/></clipPath><clipPath id="clip-path-9"><path class="cls-1" d="M14,19V12.42a3.65,3.65,0,0,0-2,3.24v3.39Z"/></clipPath></defs><title>icon-instagram</title><g class="cls-2"><g class="cls-3"><rect class="cls-4" x="11" y="7" width="12" height="17.04"/></g></g><g class="cls-5"><g class="cls-3"><rect class="cls-4" x="13" y="12" width="22" height="22"/></g></g><g class="cls-6"><g class="cls-3"><rect class="cls-4" x="15" y="7" width="26" height="17.01"/></g></g><g class="cls-7"><g class="cls-3"><rect class="cls-4" x="-5" y="-5" width="58" height="58"/></g></g><g class="cls-8"><g class="cls-3"><rect class="cls-4" x="7" y="7.42" width="12" height="16.63"/></g></g></svg>