<svg id="Ebene_1" data-name="Ebene 1" xmlns="http://www.w3.org/2000/svg" xmlns:xlink="http://www.w3.org/1999/xlink" viewBox="0 0 48 47"><defs><style>.cls-1{fill:none;}.cls-2{clip-path:url(#clip-path);}.cls-3{clip-path:url(#clip-path-2);}.cls-4{fill:#3cf596;}.cls-5{clip-path:url(#clip-path-3);}.cls-6{clip-path:url(#clip-path-5);}.cls-7{clip-path:url(#clip-path-7);}.cls-8{clip-path:url(#clip-path-9);}.cls-9{clip-path:url(#clip-path-11);}</style><clipPath id="clip-path"><path class="cls-1" d="M22.24,19.29a1.68,1.68,0,0,1,.62-.09l.49,0,1.22.1L22.34,12.9A19.26,19.26,0,0,0,21,9.7q-.47-.75-1-.75a.86.86,0,0,0-.7.33,1.36,1.36,0,0,0-.27.89,13.36,13.36,0,0,0,.72,3.29q.72,2.35,2.16,6.16A.69.69,0,0,1,22.24,19.29Z"/></clipPath><clipPath id="clip-path-2"><rect class="cls-1" x="-1041" y="-260" width="1555" height="2508"/></clipPath><clipPath id="clip-path-3"><path class="cls-1" d="M24.71,27.58a10.22,10.22,0,0,1,1-1.12,8.71,8.71,0,0,1,1.14-.9,12.68,12.68,0,0,1-1.68-.19A8.92,8.92,0,0,1,23.7,25q.33.66.59,1.32A11.49,11.49,0,0,1,24.71,27.58Z"/></clipPath><clipPath id="clip-path-5"><path class="cls-1" d="M32.17,22.31a8.52,8.52,0,0,0-3.29-1.26,22.93,22.93,0,0,0-5.1-.56,1.71,1.71,0,0,0-1.05.25,1,1,0,0,0-.31.84,2.12,2.12,0,0,0,1.57,2,14.77,14.77,0,0,0,5.07.63h.85a.57.57,0,0,1,.46.22,1.33,1.33,0,0,1,.24.65,4.88,4.88,0,0,1-1.44.75,7.77,7.77,0,0,0-1.67.83,7.4,7.4,0,0,0-2,2.15,4.59,4.59,0,0,0-.75,2.36,5.31,5.31,0,0,0,.32,1.64A5.72,5.72,0,0,1,25.39,34v.14l0,.19a1.74,1.74,0,0,1-1.43-1.06,5.74,5.74,0,0,1-.53-2.67v-.19a1.14,1.14,0,0,1-.32.21.91.91,0,0,1-.34.06,1.89,1.89,0,0,1-.35,0L22,30.58a3.65,3.65,0,0,1,.09.44,2.55,2.55,0,0,1,0,.34,1.71,1.71,0,0,1-.6,1.31,2,2,0,0,1-1.42.55A3.92,3.92,0,0,1,17.48,32a3.54,3.54,0,0,1-1.34-2.48,1.42,1.42,0,0,1,.05-.4.69.69,0,0,1,.18-.3q.29.35.8,1,1.36,1.87,2.51,1.87a1.09,1.09,0,0,0,.7-.25.68.68,0,0,0,.31-.51,2.56,2.56,0,0,0-.41-1,13.29,13.29,0,0,0-1.13-1.63,12.22,12.22,0,0,0-1.37-1.53,1.55,1.55,0,0,0-.88-.48,1.71,1.71,0,0,0-1.33.77A2.86,2.86,0,0,0,15,28.83a5.06,5.06,0,0,0,.42,1.88,9.08,9.08,0,0,0,1.23,2.09,8.18,8.18,0,0,0,3,2.5,9,9,0,0,0,4,.87,8.71,8.71,0,0,0,6.73-3,10.76,10.76,0,0,0,2.71-7.5,9.29,9.29,0,0,0-.21-2.19A2.1,2.1,0,0,0,32.17,22.31Z"/></clipPath><clipPath id="clip-path-7"><path class="cls-1" d="M19.56,26.69a11.47,11.47,0,0,0,1.71,1.89,2.31,2.31,0,0,0,1.28.68.85.85,0,0,0,.64-.32,1,1,0,0,0,.29-.69,7.15,7.15,0,0,0-.57-1.82,18.26,18.26,0,0,0-1.41-2.81,6.58,6.58,0,0,0-1.22-1.55,1.77,1.77,0,0,0-1.13-.52,1.44,1.44,0,0,0-1,.55,1.54,1.54,0,0,0-.53,1,3.69,3.69,0,0,0,.52,1.48A14,14,0,0,0,19.56,26.69Z"/></clipPath><clipPath id="clip-path-9"><path class="cls-1" d="M31.38,34.26a10.51,10.51,0,0,1-8,3.3,10.34,10.34,0,0,1-3.72-.69,9.22,9.22,0,0,1-3.1-1.93,9.75,9.75,0,0,1-2.23-2.87A7,7,0,0,1,13.6,29a4.33,4.33,0,0,1,.76-2.74,4,4,0,0,1,2.41-1.32,11,11,0,0,1-.45-1.21,3,3,0,0,1-.14-.76,2.75,2.75,0,0,1,1-1.89,2.75,2.75,0,0,1,1.84-1,2.54,2.54,0,0,1,.78.13,5.15,5.15,0,0,1,.95.44q-1.59-4.49-2.31-6.93a14.44,14.44,0,0,1-.72-3.37,3,3,0,0,1,.66-2,2.26,2.26,0,0,1,1.79-.75q1.94,0,4.91,8.65.51,1.48.78,2.29l.64-1.81q3-8.56,5.11-8.56a2.13,2.13,0,0,1,1.68.71,2.77,2.77,0,0,1,.63,1.9,14.68,14.68,0,0,1-.69,3.31q-.69,2.41-2.09,6.3a3.71,3.71,0,0,1,2.62,1.56,7.42,7.42,0,0,1,.76,3.83A11.86,11.86,0,0,1,31.38,34.26ZM24.05.07A23.15,23.15,0,1,0,47.23,23.21,23.16,23.16,0,0,0,24.05.07Z"/></clipPath><clipPath id="clip-path-11"><path class="cls-1" d="M31.79,13.83a15.44,15.44,0,0,0,.77-3,1.47,1.47,0,0,0-.26-.93.85.85,0,0,0-.71-.33q-.58,0-1.17,1a15.85,15.85,0,0,0-1.32,3.08L27,19.57l2.6.45Q31,16.27,31.79,13.83Z"/></clipPath></defs><title>icon-angellist</title><g class="cls-2"><g class="cls-3"><rect class="cls-4" x="14" y="3.94" width="15.57" height="20.66"/></g></g><g class="cls-5"><g class="cls-3"><rect class="cls-4" x="18.7" y="19.96" width="13.2" height="12.61"/></g></g><g class="cls-6"><g class="cls-3"><rect class="cls-4" x="9.96" y="15.49" width="28.1" height="25.69"/></g></g><g class="cls-7"><g class="cls-3"><rect class="cls-4" x="12.66" y="16.54" width="15.81" height="17.72"/></g></g><g class="cls-8"><g class="cls-3"><rect class="cls-4" x="-4.12" y="-4.93" width="56.35" height="56.29"/></g></g><g class="cls-9"><g class="cls-3"><rect class="cls-4" x="22.04" y="4.58" width="15.52" height="20.44"/></g></g></svg>