<svg id="Ebene_1" data-name="Ebene 1" xmlns="http://www.w3.org/2000/svg" xmlns:xlink="http://www.w3.org/1999/xlink" viewBox="0 0 46 45"><defs><style>.cls-1{fill:none;}.cls-2{clip-path:url(#clip-path);}.cls-3{clip-path:url(#clip-path-2);}.cls-4{fill:#3cf596;}</style><clipPath id="clip-path"><path class="cls-1" d="M23,0a23,23,0,0,0-7.27,44.83c1.15.21,1.51-.47,1.51-1.08s0-2.07,0-4c-6.4,1.39-7.72-3-7.72-3A6.09,6.09,0,0,0,7,33.36c-2.09-1.43.15-1.4.15-1.4a4.83,4.83,0,0,1,3.52,2.37c2.05,3.52,5.38,2.5,6.69,1.91a4.91,4.91,0,0,1,1.46-3.07C13.69,32.58,8.33,30.61,8.33,21.8a8.89,8.89,0,0,1,2.37-6.17,8.26,8.26,0,0,1,.22-6.09s1.93-.62,6.32,2.36a21.77,21.77,0,0,1,11.52,0c4.39-3,6.32-2.36,6.32-2.36a8.26,8.26,0,0,1,.23,6.09,8.89,8.89,0,0,1,2.37,6.17c0,8.84-5.38,10.78-10.5,11.35a5.45,5.45,0,0,1,1.57,4.24v6.37c0,.62.37,1.29,1.54,1.07A23,23,0,0,0,23,0Z"/></clipPath><clipPath id="clip-path-2"><rect class="cls-1" x="-978" y="-261" width="1555" height="2508"/></clipPath></defs><title>icon-github</title><g class="cls-2"><g class="cls-3"><rect class="cls-4" x="-5" y="-5" width="56" height="54.87"/></g></g></svg>