<svg id="Ebene_1" data-name="Ebene 1" xmlns="http://www.w3.org/2000/svg" xmlns:xlink="http://www.w3.org/1999/xlink" viewBox="0 0 48 48"><defs><style>.cls-1{fill:none;}.cls-2{clip-path:url(#clip-path);}.cls-3{clip-path:url(#clip-path-2);}.cls-4{fill:#3cf596;}</style><clipPath id="clip-path"><path class="cls-1" d="M34.52,18.77c0,.23,0,.45,0,.68a15,15,0,0,1-23,12.61,10.59,10.59,0,0,0,7.79-2.18,5.27,5.27,0,0,1-4.92-3.66,5.24,5.24,0,0,0,2.38-.09A5.26,5.26,0,0,1,12.53,21V20.9a5.29,5.29,0,0,0,2.38.66,5.27,5.27,0,0,1-1.63-7A14.93,14.93,0,0,0,24.13,20a5.27,5.27,0,0,1,9-4.8c1.2-.24,3.9-.53,3.9-.53C36.29,15.76,35.55,18,34.52,18.77ZM24,0A24,24,0,1,0,48,24,24,24,0,0,0,24,0Z"/></clipPath><clipPath id="clip-path-2"><rect class="cls-1" x="-849" y="-260" width="1555" height="2508"/></clipPath></defs><title>icon-twitter</title><g class="cls-2"><g class="cls-3"><rect class="cls-4" x="-5" y="-5" width="58" height="58"/></g></g></svg>