<svg id="Ebene_1" data-name="Ebene 1" xmlns="http://www.w3.org/2000/svg" xmlns:xlink="http://www.w3.org/1999/xlink" viewBox="0 0 48 48"><defs><style>.cls-1{fill:none;}.cls-2{clip-path:url(#clip-path);}.cls-3{clip-path:url(#clip-path-2);}.cls-4{fill:#3cf596;}</style><clipPath id="clip-path"><path class="cls-1" d="M37,33H31V26a1,1,0,0,0-2,0v7H23s.06-13,0-14h6v1.67a3.91,3.91,0,0,1,3.41-1.51c3.1,0,4.59,2.24,4.59,6.59ZM16,16a3,3,0,1,1,3-3A3,3,0,0,1,16,16Zm3,17H13V19h6ZM24,0A24,24,0,1,0,48,24,24,24,0,0,0,24,0Z"/></clipPath><clipPath id="clip-path-2"><rect class="cls-1" x="-1174" y="-260" width="1555" height="5483"/></clipPath></defs><title>icon-linkedin</title><g class="cls-2"><g class="cls-3"><rect class="cls-4" x="-5" y="-5" width="58" height="58"/></g></g></svg>